<svg width="100" height="100" viewBox="0 0 100 100" fill="none" xmlns="http://www.w3.org/2000/svg">
<g clip-path="url(#clip0_4336_6581)">
<path d="M0 59.0332V58.4466C2.2127 58.4466 4.42735 58.3606 6.63614 58.4466C17.2673 58.8963 26.6228 62.4983 34.4309 69.843C38.9639 74.1078 42.4522 79.1294 45.152 84.7044C45.3203 85.0525 45.5061 85.3908 45.6822 85.733C45.8583 79.3035 45.8465 72.9619 45.8778 66.6204C45.8778 65.9497 45.6822 65.584 45.0777 65.2672C41.9298 63.6031 38.9561 59.0098 40.3412 54.5122C41.0475 52.2107 41.4094 49.8035 41.9689 47.2536C41.6246 47.5175 41.4407 47.6446 41.2724 47.7913C39.3826 49.4358 37.5298 51.1156 35.5989 52.7093C34.8508 53.325 33.9997 53.8037 33.0849 54.1231C30.8246 54.8715 28.3734 54.8046 26.1573 53.934C23.9413 53.0634 22.1006 51.4441 20.9551 49.3576C17.5177 43.1197 21.5088 35.779 26.93 34.8247C28.5714 34.5353 30.1561 33.9271 31.7682 33.4559C30.0955 32.8164 28.4267 32.3902 26.795 31.8544C25.7894 31.5258 24.7271 31.1856 23.8819 30.5833C20.1334 27.9063 18.7346 23.0998 20.331 18.7724C22.7707 12.159 30.9426 10.008 36.2484 14.5838C36.9879 15.2213 37.7176 15.8705 38.4533 16.5119L42.0022 19.5878C41.5972 17.7653 41.2294 16.2244 40.9144 14.6737C40.5799 13.0233 39.989 11.3495 40.0477 9.71079C40.1906 5.60434 42.3426 2.63205 46.0617 0.97578C49.8298 -0.700045 53.5098 -0.217043 56.6753 2.42282C59.6784 4.92776 61.0635 8.14056 60.056 12.1453C59.4553 14.531 58.9838 16.9479 58.4204 19.5115C58.751 19.2554 58.9584 19.1204 59.1462 18.9484C61.1026 17.2412 63.059 15.5263 65.0409 13.829C65.3538 13.5477 65.7048 13.312 66.0836 13.1289C69.7421 11.4844 73.2774 11.7601 76.5113 14.1067C79.7453 16.4532 81.1891 19.8029 80.5924 23.7431C79.98 27.7968 77.8319 30.7632 73.6276 31.872C71.9666 32.31 70.3232 32.8164 68.402 33.3698C70.2391 33.8998 71.8335 34.3182 73.4026 34.8266C74.4121 35.1532 75.5018 35.4367 76.3372 36.0351C79.6064 38.3582 81.0835 41.6238 80.6237 45.5875C80.1679 49.5141 78.0158 52.3925 74.3299 53.8454C70.691 55.2807 67.2027 54.9776 64.1566 52.1891C62.5269 50.6952 60.8307 49.2736 59.158 47.8246C58.9623 47.6544 58.7412 47.5176 58.4047 47.2731C58.796 49.0135 59.1599 50.5602 59.4788 52.1168C59.8114 53.7359 60.3866 55.3707 60.3475 56.9859C60.2535 60.8381 58.2678 63.6716 54.9008 65.5038C54.3276 65.8167 54.1378 66.1393 54.1417 66.7749C54.1652 72.825 54.1554 78.8752 54.1554 84.9254V85.6548C63.5462 66.6224 78.5734 57.2401 100 58.4525C99.73 60.6699 99.5265 62.8073 99.1998 64.925C97.8968 73.396 94.4633 80.8268 88.2752 86.8633C81.2321 93.7289 72.6396 97.452 63.0923 99.2061C61.2787 99.5405 59.4397 99.738 57.6144 100H42.3817C42.1715 99.9268 41.9556 99.8712 41.7361 99.8338C35.0961 99.2784 28.7534 97.5967 22.7922 94.6205C10.2712 88.3631 2.78985 78.4118 0.749309 64.4948C0.48128 62.6919 0.248464 60.8616 0 59.0332ZM49.9882 41.704C51.6339 41.7017 53.242 41.2115 54.6089 40.2955C55.9758 39.3795 57.0402 38.0789 57.6673 36.5581C58.2945 35.0374 58.4563 33.3649 58.1323 31.7522C57.8082 30.1395 57.0129 28.6591 55.8469 27.4983C54.6809 26.3376 53.1966 25.5485 51.5819 25.2311C49.9671 24.9137 48.2944 25.0821 46.7755 25.715C45.2565 26.348 43.9595 27.417 43.0485 28.7869C42.1376 30.1568 41.6536 31.766 41.6579 33.4109C41.6656 35.6137 42.5468 37.7236 44.1084 39.2782C45.6699 40.8327 47.7843 41.705 49.9882 41.704Z" fill="#21005D"/>
</g>
<defs>
<clipPath id="clip0_4336_6581">
<rect width="100" height="100" fill="white"/>
</clipPath>
</defs>
</svg>
