<svg width="100" height="72" viewBox="0 0 100 72" fill="none" xmlns="http://www.w3.org/2000/svg">
<g clip-path="url(#clip0_4338_6645)">
<path d="M0 2.18406C0.701782 0.54799 1.95142 -0.00515768 3.71501 3.61836e-05C20.5699 0.0381246 37.4249 0.0459144 54.2798 0.0234076C54.5407 0.0234076 54.8016 0.0234076 55.0625 0.0234076C56.813 0.0857341 58.0001 1.24916 58.0027 2.98131C58.0027 22.6453 58.0027 42.3093 58.0027 61.9733C58.0027 62.1317 57.9818 62.2927 57.9635 62.5264H34.0847C33.8838 57.2417 31.695 52.9567 27.2808 49.9157C24.5324 48.0223 21.2253 47.1015 17.8889 47.3006C11.312 47.5966 3.60022 52.9463 3.27933 62.5446C1.65923 62.7004 0.740925 61.7655 0.0104456 60.5112L0 2.18406ZM12.8382 25.1565V26.2758C12.8382 30.1297 12.8382 33.9861 12.8382 37.8426C12.8382 39.9201 14.0043 41.0731 16.1123 41.0757C24.7024 41.0757 33.2933 41.0757 41.8852 41.0757C43.9931 41.0757 45.1567 39.9305 45.1645 37.8478C45.1645 33.9913 45.1645 30.1349 45.1645 26.281V25.4396C46.1872 25.2994 47.1916 25.3851 47.9716 25.0085C50.0091 24.0321 49.9596 21.2196 47.9247 19.9445C42.2504 16.3503 36.5266 12.8211 30.8288 9.2607C29.5583 8.46604 28.3582 8.51538 27.0956 9.31524C23.7797 11.4188 20.4378 13.4703 17.1036 15.5479C14.7348 17.0229 12.3581 18.485 9.99713 19.9756C8.69271 20.7963 8.21268 22.1908 8.70836 23.5049C9.23013 24.8735 10.5346 25.5824 12.0999 25.3227C12.3112 25.2864 12.5251 25.2267 12.8382 25.1565Z" fill="#21005D"/>
<path d="M63.9355 38.5819H72.9465C77.6659 38.5819 82.3854 38.5559 87.1048 38.5819C88.8078 38.5866 90.4931 38.9262 92.0638 39.5811C93.6346 40.2361 95.0599 41.1935 96.2579 42.3983C97.456 43.6031 98.4031 45.0317 99.0448 46.6019C99.6866 48.1722 100.01 49.8532 99.9977 51.5483C99.9977 54.173 99.9977 56.7976 99.9977 59.4223C99.9977 61.2401 99.0664 62.2633 97.0941 62.562C96.8332 57.1993 94.6444 52.8494 90.1206 49.8188C87.3482 47.9481 84.0217 47.0658 80.6818 47.3153C73.6718 47.7542 66.5418 53.4545 66.2861 62.5412H63.9382L63.9355 38.5819Z" fill="#21005D"/>
<path d="M63.9043 32.7684V15.665C64.1652 15.6442 64.4521 15.6079 64.7287 15.6079C67.1367 15.6079 69.5446 15.5585 71.9474 15.6079C76.1007 15.704 79.2913 17.5711 81.1932 21.2224C83.095 24.8737 84.7073 28.6419 86.4448 32.3633C86.4768 32.4935 86.4952 32.6266 86.4996 32.7606L63.9043 32.7684Z" fill="#21005D"/>
<path d="M18.6563 71.9996C16.1429 71.9872 13.7368 70.9843 11.9644 69.2103C10.1921 67.4363 9.19781 65.0357 9.19922 62.5337C9.20567 61.2865 9.45994 60.0529 9.94739 58.9039C10.4348 57.7549 11.1458 56.7133 12.0394 55.839C12.933 54.9647 13.9915 54.275 15.154 53.8097C16.3165 53.3444 17.56 53.1126 18.8128 53.1276C21.3103 53.1488 23.6987 54.1494 25.4599 55.9122C27.221 57.675 28.2129 60.058 28.2204 62.5441C28.2218 63.7917 27.9749 65.0272 27.494 66.1793C27.013 67.3313 26.3076 68.3771 25.4183 69.2563C24.5291 70.1354 23.4736 70.8305 22.313 71.3014C21.1524 71.7722 19.9096 72.0095 18.6563 71.9996Z" fill="#21005D"/>
<path d="M72.213 62.532C72.2135 61.2825 72.464 60.0457 72.9499 58.8936C73.4358 57.7415 74.1473 56.6974 75.043 55.822C75.9386 54.9466 77.0005 54.2576 78.1665 53.7952C79.3326 53.3327 80.5795 53.1061 81.8345 53.1285C83.081 53.142 84.3126 53.4004 85.4586 53.8888C86.6046 54.3773 87.6425 55.0861 88.5126 55.9747C89.3828 56.8634 90.0681 57.9143 90.5293 59.0671C90.9906 60.22 91.2186 61.4522 91.2003 62.693C91.1638 67.8868 86.8591 72.0419 81.5736 72.0004C79.0729 71.9743 76.6843 70.9636 74.9302 69.1893C73.176 67.4149 72.1991 65.0214 72.213 62.532Z" fill="#21005D"/>
<path d="M18.6146 35.1762V27.9178C18.6146 26.0064 18.5859 24.0925 18.6433 22.1837C18.6591 21.9758 18.718 21.7733 18.8163 21.5892C18.9147 21.405 19.0503 21.2431 19.2146 21.1138C22.2774 19.154 25.3646 17.2305 28.4761 15.3434C28.646 15.2614 28.8324 15.2188 29.0213 15.2188C29.2102 15.2188 29.3966 15.2614 29.5666 15.3434C32.6728 17.234 35.76 19.1557 38.828 21.1086C38.9758 21.2115 39.1006 21.3438 39.1944 21.4971C39.2883 21.6504 39.3492 21.8214 39.3732 21.9993C39.4072 26.2765 39.3941 30.5537 39.3889 34.8334C39.3738 34.9465 39.3475 35.0578 39.3106 35.1658L18.6146 35.1762Z" fill="#21005D"/>
</g>
<defs>
<clipPath id="clip0_4338_6645">
<rect width="100" height="72" fill="white"/>
</clipPath>
</defs>
</svg>
