<svg width="100" height="70" viewBox="0 0 100 70" fill="none" xmlns="http://www.w3.org/2000/svg">
<g clip-path="url(#clip0_4337_6588)">
<path d="M91.2703 56.7964H8.72987V6.06832C8.61635 5.24687 8.69234 4.41043 8.95207 3.62265C9.2118 2.83488 9.64842 2.11653 10.2287 1.52225C10.809 0.927967 11.5177 0.473412 12.3008 0.193183C13.0839 -0.0870467 13.9209 -0.185572 14.7479 -0.0948975H85.1809C85.9997 -0.201724 86.8322 -0.12079 87.6149 0.14173C88.3976 0.40425 89.1097 0.841419 89.6971 1.41991C90.2845 1.99839 90.7316 2.70292 91.0042 3.47974C91.2768 4.25657 91.3678 5.08518 91.2703 5.90239V56.7964Z" fill="#21005D"/>
<path d="M35.2759 60.375C35.2759 61.5839 35.2759 62.7455 35.2759 63.9307C35.2759 65.5189 35.8944 66.1352 37.4881 66.1352C45.7897 66.1352 54.1389 66.1352 62.4167 66.1352C64.0105 66.1352 64.6051 65.5189 64.6289 63.907V60.3987H100C99.7503 61.6958 99.4004 62.9718 98.9534 64.2152C98.1942 65.9933 96.9081 67.4978 95.2671 68.5273C93.6262 69.5567 91.7087 70.062 89.7716 69.9754C83.4919 69.9754 77.236 69.9754 70.9562 69.9754H10.3235C8.13947 70.0964 5.97847 69.4786 4.19096 68.2222C2.40345 66.9658 1.09426 65.1445 0.47573 63.0536C0.272402 62.1692 0.113631 61.2752 0 60.375H35.2759Z" fill="#21005D"/>
<path d="M61.0609 60.4004V62.6049H38.9629V60.4004H61.0609Z" fill="#21005D"/>
</g>
<defs>
<clipPath id="clip0_4337_6588">
<rect width="100" height="70" fill="white"/>
</clipPath>
</defs>
</svg>
