<svg width="100" height="94" viewBox="0 0 100 94" fill="none" xmlns="http://www.w3.org/2000/svg">
<g clip-path="url(#clip0_4338_6624)">
<path d="M99.9998 9.60277C99.9998 9.9883 99.7533 10.3738 99.6125 10.7944C99.272 11.9528 98.6801 13.0225 97.8785 13.9279C97.0768 14.8332 96.0852 15.5521 94.9737 16.0336C93.8621 16.5151 92.6578 16.7474 91.4461 16.7142C90.2345 16.681 89.0449 16.383 87.9617 15.8414C87.7463 15.6873 87.4878 15.6045 87.2226 15.6045C86.9573 15.6045 86.6987 15.6873 86.4833 15.8414L72.8262 23.9376C72.6144 24.0358 72.4372 24.1955 72.3179 24.3956C72.1986 24.5957 72.1427 24.8269 72.1574 25.0592C72.1387 27.0207 71.4205 28.9117 70.131 30.3947C68.8415 31.8777 67.0647 32.8562 65.1177 33.1553C63.1742 33.4827 61.1771 33.1082 59.4864 32.0993C57.7956 31.0905 56.5222 29.5136 55.8956 27.6527C55.8028 27.3534 55.644 27.0785 55.4309 26.8481C55.2178 26.6176 54.9556 26.4375 54.6636 26.3209C50.5453 24.3231 46.4623 22.2903 42.344 20.2225C42.1699 20.097 41.9605 20.0295 41.7456 20.0295C41.5307 20.0295 41.3213 20.097 41.1473 20.2225C40.0063 21.2023 38.6051 21.8328 37.1125 22.038C35.6199 22.2432 34.0996 22.0143 32.7347 21.379C32.5136 21.2621 32.2606 21.2195 32.0132 21.2574C31.7659 21.2953 31.5375 21.4118 31.362 21.5894C26.4576 25.2344 21.5531 28.8677 16.6488 32.4894C16.4351 32.6204 16.2753 32.8227 16.1979 33.0604C16.1205 33.298 16.1306 33.5553 16.2264 33.7862C16.5292 34.8713 16.6044 36.0068 16.4472 37.122C16.2901 38.2373 15.9039 39.3084 15.3128 40.2686C14.7217 41.2287 13.9383 42.0573 13.0115 42.7028C12.0847 43.3482 11.0343 43.7968 9.92576 44.0204C8.82393 44.2482 7.68735 44.2526 6.58376 44.0334C5.48016 43.8142 4.43217 43.3759 3.50246 42.7446C2.57274 42.1132 1.78031 41.3018 1.17245 40.3589C0.564582 39.4159 0.153794 38.3605 -0.035474 37.256C-0.210447 36.1667 -0.166718 35.0537 0.0932133 33.9814C0.353144 32.9091 0.824088 31.8988 1.4788 31.0089C2.13352 30.119 2.95898 29.3672 3.90743 28.7972C4.85588 28.2271 5.9085 27.8501 7.0043 27.6878C8.6228 27.4115 10.2876 27.657 11.7562 28.3887C11.953 28.5393 12.1943 28.621 12.4426 28.621C12.6908 28.621 12.932 28.5393 13.1289 28.3887C17.9863 24.8839 22.8438 21.1687 27.7013 17.5587C27.9179 17.4396 28.0816 17.2438 28.1598 17.01C28.2381 16.7763 28.2252 16.5217 28.1236 16.297C27.5964 14.7818 27.5501 13.1417 27.9909 11.5994C28.4316 10.057 29.3382 8.68701 30.5876 7.67515C31.7208 6.58821 33.1583 5.86898 34.7105 5.61243C36.2627 5.35588 37.8566 5.57405 39.2817 6.23814C40.7657 6.8223 42.0442 7.82832 42.958 9.13086C43.8718 10.4334 44.3805 11.9749 44.4207 13.5633C44.4032 13.82 44.4032 14.0776 44.4207 14.3343C44.4654 14.6634 44.6132 14.97 44.8431 15.2105L56.5291 20.9584C57.1564 19.8181 58.0437 18.8404 59.1196 18.1038C60.1956 17.3672 61.4302 16.8924 62.7241 16.7176C64.0115 16.5477 65.3212 16.6848 66.545 17.1174C67.7689 17.55 68.8721 18.2658 69.7638 19.206L83.5971 11.0047C83.239 9.92547 83.1042 8.78517 83.201 7.65268C83.2978 6.5202 83.6242 5.419 84.1603 4.41556C84.9561 2.91028 86.2061 1.69148 87.7342 0.93071C89.2623 0.169938 90.9914 -0.094466 92.6783 0.174721C94.2605 0.35481 95.7526 1.00155 96.963 2.03196C98.1735 3.06238 99.047 4.42942 99.4717 5.9577L99.8237 6.93905L99.9998 9.60277Z" fill="#21005D"/>
<path d="M99.9998 92.0026C99.6912 92.6561 99.1874 93.1987 98.5573 93.5563C97.9273 93.9139 97.2018 94.0689 96.4799 94.0003C93.5584 94.0003 90.6368 94.0003 87.7153 94.0003C84.1954 94.1755 83.3858 92.7386 83.421 89.7595C83.421 72.2352 83.421 54.8863 83.421 37.4321V36.5559C83.421 34.1376 84.477 33.0511 86.9409 33.0511C90.144 33.0511 93.3824 33.0511 96.5855 33.0511C97.3286 32.9582 98.0813 33.119 98.7207 33.5074C99.3601 33.8957 99.8483 34.4885 100.105 35.189L99.9998 92.0026Z" fill="#21005D"/>
<path d="M27.7715 66.3112V42.0927C27.7715 39.7445 28.7923 38.5879 31.2914 38.5879H41.3231C43.5758 38.5879 44.843 39.6043 44.843 41.8124V90.5998C44.9067 91.0395 44.8672 91.488 44.7276 91.91C44.588 92.3319 44.352 92.716 44.0382 93.0319C43.7244 93.3477 43.3413 93.5868 42.9191 93.7304C42.4969 93.874 42.0469 93.9181 41.6046 93.8594H31.2562C30.824 93.9065 30.3867 93.8545 29.9778 93.7075C29.5688 93.5605 29.199 93.3224 28.8967 93.0112C28.5944 92.7 28.3675 92.3242 28.2335 91.9123C28.0995 91.5004 28.0619 91.0635 28.1235 90.6349C27.8888 82.5971 27.7715 74.4892 27.7715 66.3112Z" fill="#21005D"/>
<path d="M72.2633 71.9202V90.6712C72.2633 93.0194 71.2426 94.176 68.7435 94.176H58.6765C58.2282 94.2422 57.7705 94.2023 57.3406 94.0595C56.9106 93.9168 56.5205 93.6752 56.2017 93.3544C55.8829 93.0336 55.6445 92.6425 55.5057 92.2129C55.367 91.7833 55.3318 91.3271 55.4031 90.8815V53.029C55.3366 52.5826 55.3767 52.1269 55.52 51.6988C55.6634 51.2707 55.9061 50.8822 56.2282 50.5648C56.5504 50.2474 56.9431 50.01 57.3746 49.8718C57.8061 49.7337 58.2642 49.6986 58.7118 49.7696H68.849C69.2954 49.697 69.7527 49.7311 70.1832 49.8692C70.6137 50.0074 71.0049 50.2455 71.3247 50.564C71.6445 50.8824 71.8837 51.272 72.0224 51.7006C72.1611 52.1292 72.1954 52.5846 72.1225 53.029L72.2633 71.9202Z" fill="#21005D"/>
<path d="M-0.0348404 77.3866C-0.0348404 72.9004 -0.0348404 68.4493 -0.0348404 63.9631C-0.0955782 63.5424 -0.059399 63.1134 0.0708594 62.7086C0.201118 62.3038 0.422093 61.9338 0.717089 61.6266C1.01208 61.3193 1.37328 61.0828 1.77355 60.9351C2.17381 60.7873 2.6026 60.7322 3.02744 60.7737H13.5871C14.0126 60.7287 14.4429 60.7796 14.8459 60.9228C15.249 61.0659 15.6146 61.2975 15.9155 61.6005C16.2164 61.9035 16.4449 62.2701 16.5842 62.673C16.7234 63.0759 16.7698 63.5048 16.7199 63.928V90.8452C16.7199 92.9832 15.6639 93.9645 13.5167 93.9996H3.27386C2.83475 94.0662 2.38608 94.0285 1.96443 93.8894C1.54278 93.7503 1.16007 93.514 0.847709 93.1995C0.53535 92.8851 0.302144 92.5015 0.167106 92.0802C0.0320682 91.6588 -0.000941247 91.2116 0.0707519 90.7752L-0.0348404 77.3866Z" fill="#21005D"/>
</g>
<defs>
<clipPath id="clip0_4338_6624">
<rect width="100" height="94" fill="white"/>
</clipPath>
</defs>
</svg>
