<svg width="100" height="100" viewBox="0 0 100 100" fill="none" xmlns="http://www.w3.org/2000/svg">
<g clip-path="url(#clip0_4335_6942)">
<path d="M87.4969 100.029H66.5885V91.7601H33.372V100.029H12.4636V91.6466H4.15119C4.13357 91.3118 4.11399 91.0886 4.11399 90.8635C4.11399 85.7734 4.07288 80.7029 4.12966 75.6227C4.20992 68.4751 5.61948 61.5839 8.59324 55.0784C11.242 49.2836 14.0513 43.5592 16.847 37.8329C19.6621 32.0694 24.345 29.1622 30.7467 29.1446C43.5737 29.1081 56.4012 29.1081 69.2295 29.1446C75.6273 29.1622 80.3004 32.0812 83.1292 37.831C85.6469 42.97 88.1116 48.1344 90.5862 53.2969C93.6754 59.7397 95.5353 66.5193 95.7369 73.6747C95.9014 79.4989 95.8289 85.329 95.8544 91.1571C95.8299 91.3467 95.7872 91.5336 95.7271 91.7151H87.5047L87.4969 100.029ZM77.0055 54.0976C76.8665 53.757 76.7745 53.4888 76.6531 53.2343C75.0635 49.9238 73.4444 46.6289 71.8939 43.2989C71.3399 42.1047 70.502 41.6309 69.2119 41.6309C56.3902 41.6505 43.5691 41.6505 30.7487 41.6309C29.4527 41.6309 28.6304 42.1301 28.0764 43.3165C26.5376 46.6133 24.9284 49.8787 23.3505 53.1579C23.2154 53.4379 23.0921 53.7256 22.9237 54.0976H77.0055ZM77.0643 79.1563C77.8863 79.1592 78.7007 78.9996 79.4609 78.6869C80.2211 78.3742 80.9121 77.9144 81.4941 77.334C82.0762 76.7536 82.5379 76.0639 82.8528 75.3046C83.1676 74.5453 83.3295 73.7313 83.3289 72.9093C83.3172 69.4754 80.4472 66.627 77.0329 66.6583C75.3756 66.6617 73.7875 67.3233 72.6179 68.4976C71.4484 69.6719 70.7933 71.2627 70.7966 72.92C70.8 74.5774 71.4616 76.1655 72.6359 77.335C73.8102 78.5046 75.401 79.1597 77.0584 79.1563H77.0643ZM29.114 72.9543C29.1199 72.1321 28.9634 71.3169 28.6534 70.5554C28.3434 69.7939 27.8861 69.1011 27.3076 68.5168C26.7292 67.9326 26.041 67.4683 25.2826 67.1507C24.5243 66.8331 23.7106 66.6684 22.8885 66.6661C21.2277 66.6785 19.6388 67.3449 18.4661 68.5209C17.2934 69.6969 16.6315 71.2877 16.6238 72.9484C16.6238 74.6047 17.2817 76.1932 18.4529 77.3644C19.6241 78.5356 21.2126 79.1935 22.8689 79.1935C24.5252 79.1935 26.1137 78.5356 27.2848 77.3644C28.456 76.1932 29.114 74.6047 29.114 72.9484V72.9543Z" fill="#21005D"/>
<path d="M100 21.0728C99.8356 21.2999 99.6554 21.5172 99.5106 21.758C96.6132 26.5329 92.3962 29.1327 86.7854 29.1034C81.1433 29.076 76.9107 26.4311 74.1014 21.5564C73.7706 20.9828 73.4358 20.8164 72.8132 20.8164C57.5757 20.832 42.3382 20.832 27.1006 20.8164C26.4526 20.8164 26.1492 21.0376 25.8301 21.5897C23.054 26.3939 18.8861 29.029 13.3242 29.1053C7.76233 29.1817 3.53563 26.6719 0.577528 21.9793C0.426018 21.7291 0.288128 21.471 0.164453 21.206C0.135688 21.0855 0.123178 20.9617 0.127256 20.8379H12.3884V8.33987H0C0.225137 7.87393 0.356301 7.5235 0.548157 7.21027C3.48473 2.44324 7.76233 -0.0782977 13.3477 0.00392624C18.8528 0.0841925 23.0345 2.68208 25.7929 7.4589C26.1746 8.12061 26.5603 8.33987 27.3062 8.33791C42.4132 8.31442 57.5209 8.31442 72.6292 8.33791C73.4123 8.33791 73.8038 8.0697 74.1954 7.39625C77.036 2.58028 81.2901 -0.00586316 86.8755 9.98132e-06C92.4608 0.00588312 96.6895 2.62726 99.5497 7.43932L99.998 8.17934V8.37511H87.5666V20.834H88.8919L99.998 20.881L100 21.0728Z" fill="#21005D"/>
</g>
<defs>
<clipPath id="clip0_4335_6942">
<rect width="100" height="100" fill="white"/>
</clipPath>
</defs>
</svg>
