<svg width="100" height="75" viewBox="0 0 100 75" fill="none" xmlns="http://www.w3.org/2000/svg">
<g clip-path="url(#clip0_4338_6619)">
<path d="M0.0100993 24.0311C0.793001 21.381 2.73459 20.0142 5.16942 18.9186C17.8994 13.1801 30.5876 7.34767 43.2863 1.54132C47.7462 -0.495857 52.2061 -0.521942 56.6687 1.51263C69.7797 7.49461 82.8906 13.4792 96.0016 19.4664C98.5435 20.6402 100.013 22.5287 99.9997 25.3797C99.9866 28.2307 98.4808 30.0983 95.9416 31.2565C82.8933 37.2106 69.8449 43.1709 56.7966 49.1372C52.2401 51.224 47.7071 51.1848 43.1427 49.0903C30.3032 43.2005 17.4514 37.3376 4.58747 31.5017C2.29356 30.4583 0.719933 28.9741 0.00488281 26.577L0.0100993 24.0311Z" fill="#21005D"/>
<path d="M81.1035 44.8784C81.1035 50.077 81.3932 55.2312 81.0148 60.3359C80.6886 64.6815 77.9797 67.8195 74.0548 69.6819C68.5224 72.2909 62.5955 73.9647 56.5152 74.6353C46.1966 75.8195 36.3216 74.2075 26.8093 70.1123C21.6474 67.8873 18.7585 63.5912 18.7559 58.0066V44.7949C19.4787 45.1158 20.0972 45.3844 20.7079 45.6635C27.2921 48.671 33.8815 51.6629 40.4553 54.6913C46.9064 57.6623 53.3131 57.5971 59.7486 54.6156C66.6433 51.4229 73.5798 48.2902 80.4772 45.134C80.6808 45.0427 80.8895 44.9645 81.1035 44.8784Z" fill="#21005D"/>
<path d="M93.7606 39.0605V57.476C93.7606 58.1907 93.7867 58.908 93.7606 59.6201C93.7043 60.4041 93.3512 61.1371 92.7734 61.6701C92.1955 62.2031 91.4362 62.4961 90.6499 62.4894C89.0189 62.4894 87.5548 61.2061 87.5444 59.6201C87.5105 53.8999 87.5261 48.177 87.5444 42.4541C87.5503 42.3226 87.586 42.1942 87.6489 42.0785C87.7117 41.9628 87.8 41.8629 87.9072 41.7863C89.7835 40.876 91.7068 40.0074 93.7606 39.0605Z" fill="#21005D"/>
</g>
<defs>
<clipPath id="clip0_4338_6619">
<rect width="100" height="75" fill="white"/>
</clipPath>
</defs>
</svg>
