<svg width="91" height="100" viewBox="0 0 91 100" fill="none" xmlns="http://www.w3.org/2000/svg">
<g clip-path="url(#clip0_4338_6602)">
<path d="M2.149 100C0.188676 98.8445 -0.258738 97.8585 0.124017 95.5812C0.863665 91.2016 3.29985 88.2226 7.40154 86.6236C7.52309 86.5767 7.63947 86.5219 7.75584 86.4671C7.78171 86.4541 7.79205 86.4149 7.80757 86.3888C6.04897 74.0741 18.5325 64.5347 29.7901 69.0553L38.953 56.0127L30.9022 44.5196C24.8557 35.888 18.7885 27.2747 12.7756 18.6249C8.82135 12.9383 9.87393 5.15449 15.1032 0.886965C16.567 -0.312952 18.3126 -0.245131 19.4118 1.05391C20.5109 2.35295 20.3557 4.12935 18.8738 5.35013C16.148 7.60128 15.6463 11.5975 16.8851 13.8748C18.1575 12.8157 19.4169 11.7645 20.679 10.7185C22.1997 9.45593 23.9143 9.53419 25.0419 10.9167C26.1126 12.221 25.8565 13.9843 24.4031 15.2103C22.9497 16.4363 21.535 17.6154 20.0557 18.8622C20.9842 20.1978 21.8661 21.4707 22.8385 22.8689L25.4583 20.7038C26.0065 20.25 26.5367 19.7726 27.0979 19.337C27.6969 18.8543 28.4602 18.6292 29.2226 18.7102C29.9851 18.7912 30.6851 19.172 31.1711 19.77C31.6539 20.3719 31.8811 21.1419 31.8031 21.9121C31.725 22.6822 31.3482 23.39 30.7548 23.881C29.291 25.1514 27.7858 26.3774 26.2083 27.6999C27.1238 29.0041 28.0186 30.3084 28.9755 31.6831C30.3177 30.5692 31.6237 29.4737 32.9375 28.3911C34.3806 27.2043 36.1728 27.2956 37.2409 28.5998C38.309 29.9041 38.1021 31.6518 36.6461 32.8986C35.2444 34.096 33.8246 35.2698 32.3453 36.5088L35.1151 40.4972C36.5452 39.3052 37.8978 38.1157 39.315 37.0123C39.6891 36.7128 40.1314 36.5122 40.6018 36.4287C41.0721 36.3452 41.5557 36.3813 42.0087 36.5339C42.4617 36.6865 42.8698 36.9506 43.1961 37.3024C43.5223 37.6542 43.7564 38.0826 43.8771 38.5487C44.2003 39.793 43.815 40.8546 42.8245 41.6789L38.4797 45.3178L42.6046 50.7957C43.2641 49.867 43.846 49.0584 44.415 48.2445L76.9336 1.91994C78.5397 -0.367731 79.9802 -0.576412 82.1862 1.09825C86.1792 4.13196 88.0827 8.12559 87.7025 13.1809C87.5137 15.719 86.4766 17.9153 85.0413 19.9761C73.7914 36.1245 62.5502 52.2782 51.3175 68.437C47.9115 73.3332 44.5184 78.2425 41.0814 83.1178C40.2704 84.233 39.7284 85.5236 39.4986 86.8871C38.3012 93.8675 32.6556 99.061 25.616 99.8044C25.4013 99.8468 25.1916 99.9115 24.9902 99.9975H22.2954C22.1241 99.9181 21.9445 99.8586 21.76 99.8201C18.3292 99.5144 15.1121 98.0095 12.6644 95.5656C11.5963 94.5065 10.7144 93.2597 9.73169 92.078C7.52568 92.7145 6.02827 94.3474 5.88862 96.6873C5.79293 98.315 5.11276 99.3636 3.69812 100.008L2.149 100ZM33.959 84.1664C34.2306 80.1101 30.1936 73.8888 24.2376 73.821C18.5014 73.7532 13.6342 78.1616 13.5722 83.5482C13.5023 89.4278 17.917 94.0657 23.6583 94.1413C29.2186 94.2196 33.8685 89.7173 33.9461 84.169L33.959 84.1664Z" fill="#21005D"/>
<path d="M72.9998 99.9994C72.0041 99.7542 70.98 99.5899 70.0153 99.2508C64.0412 97.1431 60.4465 92.9251 59.1094 86.6934C59.0184 86.2559 58.8493 85.8387 58.6103 85.4622C56.8241 82.718 55.0198 79.986 53.1974 77.2662C52.9232 76.8567 52.7707 76.5489 53.1094 76.0637C56.4353 71.311 59.7482 66.5487 63.0481 61.7769C63.1331 61.6149 63.2058 61.4466 63.2654 61.2734L68.6343 69.232C70.96 68.2854 73.4609 67.8565 75.9661 67.9747C83.1195 68.1912 89.8307 74.3969 90.8263 81.539C92.2125 91.4722 85.0773 98.7395 77.0265 99.8247C76.8409 99.8669 76.6599 99.9272 76.486 100.005L72.9998 99.9994ZM64.8326 84.497C64.7214 89.435 69.4024 94.0025 74.7144 94.1485C76.0614 94.18 77.4012 93.943 78.6571 93.4509C79.913 92.9588 81.0602 92.2215 82.0329 91.2811C83.0056 90.3407 83.7846 89.2159 84.3252 87.9712C84.8658 86.7264 85.1574 85.3862 85.1833 84.0275C85.279 78.6879 80.6988 73.9847 75.2653 73.8386C69.4619 73.6769 64.9671 78.2653 64.8326 84.4996V84.497Z" fill="#21005D"/>
</g>
<defs>
<clipPath id="clip0_4338_6602">
<rect width="91" height="100" fill="white"/>
</clipPath>
</defs>
</svg>
