<svg width="100" height="87" viewBox="0 0 100 87" fill="none" xmlns="http://www.w3.org/2000/svg">
<g clip-path="url(#clip0_4338_6633)">
<path d="M0 45.375H14.1865C14.1865 46.3825 14.1865 47.4234 14.1865 48.4612C14.2045 50.0618 14.8628 50.7335 16.4338 50.7546C17.3644 50.7546 18.301 50.7728 19.2316 50.7546C20.6559 50.7244 21.3262 50.0285 21.3591 48.5701C21.383 47.5535 21.386 46.5338 21.401 45.5142C21.401 45.487 21.4489 45.4597 21.5237 45.378H78.7067C78.7067 46.3856 78.7067 47.3901 78.7067 48.4037C78.7067 50.086 79.362 50.7516 80.9928 50.7698C81.9653 50.7698 82.9378 50.797 83.9073 50.7698C85.1402 50.7244 85.8314 50.0255 85.8733 48.7759C85.9092 47.6866 85.8733 46.5943 85.8733 45.4234H99.991C99.991 45.6957 100.012 45.9801 99.991 46.2615C99.592 51.3386 99.1841 56.4157 98.7672 61.4927C98.3582 66.5355 97.9413 71.5722 97.5164 76.6029C97.3129 79.0234 97.1513 81.4198 96.87 83.8161C96.6366 85.8191 95.2033 87.0203 93.1925 87.0203H6.83443C4.84455 87.0203 3.40225 85.7949 3.20177 83.7677C2.78284 79.562 2.46267 75.3503 2.10957 71.1416C1.61285 65.2032 1.12012 59.2628 0.631373 53.3204C0.415927 50.7032 0.218439 48.1102 0 45.375ZM25.1623 68.8723C25.1432 68.9719 25.1371 69.0737 25.1444 69.1749C25.2104 69.3501 25.2894 69.52 25.3808 69.6832C27.0984 72.606 29.6598 74.2217 32.9932 74.2701C36.4224 74.3246 39.1095 72.7573 40.845 69.7316C41.252 69.0266 41.6769 68.8421 42.416 68.8451C47.5288 68.8713 52.6417 68.8713 57.7546 68.8451C58.4219 68.8451 58.8079 69.0024 59.158 69.6287C61.1478 73.19 64.8882 74.9206 68.8351 74.0492C71.6898 73.4199 73.7485 71.7074 75.077 68.8511C72.0129 68.8511 69.1134 68.8179 66.2168 68.8754C65.3969 68.8905 65.0438 68.5728 64.589 67.9071C63.3442 66.0675 63.3442 64.3943 64.589 62.5547C65.0438 61.883 65.3939 61.5714 66.2168 61.5895C69.1134 61.644 72.0129 61.6107 75.095 61.6107C74.8287 61.0964 74.6671 60.7272 74.4576 60.4005C73.6378 59.0865 72.4956 58.0094 71.1423 57.2738C69.7889 56.5383 68.2703 56.1693 66.7342 56.2028C65.198 56.2363 63.6966 56.6711 62.3758 57.465C61.0551 58.2589 59.9599 59.3848 59.1969 60.7333C58.8767 61.287 58.5984 61.641 57.8653 61.641C52.6407 61.6017 47.4161 61.6138 42.1916 61.641C41.9416 61.6715 41.6885 61.6216 41.4682 61.4983C41.248 61.375 41.0718 61.1846 40.9647 60.9542C38.9359 57.3234 35.3392 55.6229 31.3355 56.4157C28.415 57.0026 26.3593 58.7636 24.9439 61.6289H26.2276C28.804 61.6289 31.3774 61.6561 33.9537 61.6107C34.6779 61.6107 35.01 61.8619 35.423 62.467C36.7156 64.3641 36.7396 66.122 35.423 68.0191C35.01 68.6242 34.6928 68.8996 33.9597 68.8905C31.0332 68.8451 28.0948 68.8723 25.1623 68.8723Z" fill="#21005D"/>
<path d="M99.551 39.8299H85.8821C85.8821 39.4124 85.8821 39.016 85.8821 38.6197C85.8611 36.889 85.2268 36.2596 83.4882 36.2475C82.6654 36.2475 81.8455 36.2475 81.0226 36.2475C79.3678 36.2627 78.7275 36.9102 78.7065 38.5803C78.7065 38.9555 78.7065 39.3307 78.7065 39.7906H21.3619C21.3619 39.2732 21.3828 38.7588 21.3619 38.2445C21.2991 36.9979 20.6228 36.299 19.387 36.2566C18.3786 36.2233 17.3702 36.2354 16.3618 36.2566C14.8656 36.2838 14.2193 36.9707 14.1923 38.5107C14.1923 38.9222 14.1923 39.3307 14.1923 39.8087H0.475586C0.744894 38.0811 0.999235 36.3867 1.27453 34.6954C1.77724 31.6122 2.30687 28.5291 2.79761 25.4429C3.20157 22.8922 4.47331 21.7637 7.02874 21.7637H93.0457C95.5323 21.7637 96.8279 22.8105 97.2349 25.219C98.0069 29.7817 98.749 34.3535 99.4971 38.9404C99.539 39.1855 99.53 39.4517 99.551 39.8299Z" fill="#21005D"/>
<path d="M71.4685 16.2781H64.4246V7.31304H35.7283V16.2236H28.5468C28.5468 14.0573 28.5228 11.8818 28.5468 9.70937C28.5677 8.31756 28.4929 6.89248 28.7742 5.54908C29.1071 3.96597 29.9725 2.54854 31.2231 1.53835C32.4737 0.528153 34.032 -0.0123061 35.6326 0.009077C45.2239 -0.00302567 54.8143 -0.00302567 64.4036 0.009077C65.3375 0.00349585 66.2634 0.184583 67.1279 0.54192C67.9924 0.899258 68.7785 1.4258 69.4411 2.09131C70.1037 2.75682 70.6298 3.54816 70.989 4.41988C71.3482 5.29159 71.5335 6.22648 71.5343 7.17083C71.5522 9.89393 71.5343 12.617 71.5343 15.322C71.5343 15.6427 71.4924 15.9664 71.4685 16.2781Z" fill="#21005D"/>
</g>
<defs>
<clipPath id="clip0_4338_6633">
<rect width="100" height="87" fill="white"/>
</clipPath>
</defs>
</svg>
