<svg width="100" height="100" viewBox="0 0 100 100" fill="none" xmlns="http://www.w3.org/2000/svg">
<g clip-path="url(#clip0_4332_6928)">
<path d="M-0.000976562 85.5455C0.235912 84.4065 0.412116 83.2519 0.715568 82.1306C3.17842 73.0288 11.1289 66.7725 20.6592 66.6707C31.5952 66.5631 42.5332 66.6453 53.4712 66.6453C53.6669 66.6453 53.849 66.6707 54.1074 66.6883V79.1267H41.6855V99.9995H-0.000976562V85.5455Z" fill="#21005D"/>
<path d="M42.5998 0C43.9703 0.344423 45.4053 0.567518 46.7326 1.0548C55.7168 4.35226 60.9753 10.7182 62.3673 20.2212C62.3849 20.3464 62.4221 20.4677 62.4828 20.728H66.6038V29.0118H8.43115V20.7613H12.4817C12.8165 19.2427 13.0162 17.7867 13.4606 16.411C16.3973 7.37574 22.57 1.97261 31.9066 0.183954C32.0902 0.135578 32.2701 0.0741026 32.445 0H33.4238C33.4147 5.42858 33.4069 10.8572 33.4003 16.2857C33.4003 16.3679 33.4787 16.4501 33.5158 16.5245H41.6307V0H42.5998Z" fill="#21005D"/>
<path d="M62.4639 37.4941C62.689 50.0186 52.2698 62.3983 37.5162 62.3846C22.6921 62.3728 12.3317 49.954 12.5725 37.4941H62.4639Z" fill="#21005D"/>
<path d="M50.0669 99.9461V87.5566H70.8191V99.9461H50.0669Z" fill="#21005D"/>
<path d="M79.2383 99.9363V87.5703H99.9787V99.9363H79.2383Z" fill="#21005D"/>
<path d="M79.2646 45.8926H99.9757V58.2859H79.2646V45.8926Z" fill="#21005D"/>
<path d="M62.5874 66.7012H83.3043V79.0887H62.5874V66.7012Z" fill="#21005D"/>
<path d="M91.7578 79.0749V66.7129H100V79.0749H91.7578Z" fill="#21005D"/>
</g>
<defs>
<clipPath id="clip0_4332_6928">
<rect width="100" height="100" fill="white"/>
</clipPath>
</defs>
</svg>
