<svg width="99" height="100" viewBox="0 0 99 100" fill="none" xmlns="http://www.w3.org/2000/svg">
<g clip-path="url(#clip0_4338_6606)">
<path d="M2.03178 100.019C1.47581 99.5454 0.708954 99.1662 0.402215 98.5785C0.0127705 97.879 -0.0967143 97.0603 0.0954694 96.2847C2.4727 89.7255 4.96496 83.2041 7.5339 76.3984C10.3375 83.0129 14.458 89.0021 19.6501 94.0098L10.8697 97.2705L3.62302 100.019H2.03178Z" fill="#21005D"/>
<path d="M30.3099 28.8711C33.9524 32.473 37.4991 35.9611 40.9883 39.4872C41.261 39.9159 41.3698 40.4269 41.295 40.928C40.9165 47.6317 41.8473 54.3448 44.0365 60.7005C46.4773 67.8462 50.4537 74.3846 55.6925 79.8664L56.1527 80.3782L54.3698 81.0607C51.2641 82.2171 48.1775 83.3735 45.0526 84.492C44.8537 84.5499 44.6445 84.5647 44.4394 84.5353C44.2342 84.5058 44.0379 84.4328 43.864 84.3213C34.9336 77.3212 28.9104 67.3248 26.9358 56.2265C25.2336 47.2861 26.2614 38.047 29.8881 29.6863C30.0799 29.4967 30.0799 29.2502 30.3099 28.8711Z" fill="#21005D"/>
<path d="M20.4936 42.7676C19.7336 51.0166 20.9246 59.3274 23.9724 67.0429C27.0202 74.7583 31.8412 81.667 38.0544 87.2226L30.2709 90.1041C29.0439 90.559 27.817 91.0709 26.5709 91.4501C26.3676 91.495 26.157 91.498 25.9525 91.4589C25.748 91.4197 25.5539 91.3393 25.3822 91.2226C18.4306 85.2203 13.4561 77.297 11.0997 68.4738C10.9941 68.1018 10.9941 67.7083 11.0997 67.3363L20.2635 43.1657C20.2635 43.1657 20.2443 43.0519 20.4936 42.7676Z" fill="#21005D"/>
<path d="M82.9724 18.0093C82.4932 15.1657 82.2439 12.4358 84.4486 10.2178C86.6533 7.9998 89.4523 8.32206 92.3472 8.68225C92.3472 8.17041 92.2513 7.7344 92.1938 7.29838C91.9487 6.19606 91.9648 5.05263 92.2409 3.9575C92.5169 2.86236 93.0454 1.84521 93.785 0.985577C94.1543 0.565854 94.6393 0.261647 95.1806 0.110142C95.722 -0.0413635 96.2963 -0.0335949 96.8332 0.132502C97.3857 0.260102 97.8826 0.558744 98.2515 0.984955C98.6205 1.41117 98.8423 1.94269 98.8846 2.50217C98.9526 3.20105 98.7984 3.90349 98.4436 4.51164C98.0392 5.18469 97.9154 5.98694 98.0985 6.74861C98.3094 7.88605 98.5586 9.04245 98.6928 10.1988C98.8263 10.8537 98.7925 11.5311 98.5946 12.1698C98.3967 12.8085 98.0409 13.3884 97.5595 13.857C97.078 14.3255 96.486 14.668 95.8371 14.8535C95.1881 15.039 94.5026 15.0616 93.8425 14.9192C92.6347 14.7865 91.4461 14.5401 90.2575 14.3315C88.6663 14.0472 88.3404 14.3316 88.6663 15.8481C88.8197 16.796 89.0114 17.7439 89.1648 18.7297C89.7974 22.7865 87.4969 24.9097 83.4134 24.1515C82.0906 23.905 80.7678 23.6965 79.1957 23.4311C79.1957 24.3979 79.1957 25.1183 79.3874 25.8387C79.5792 26.559 79.8092 27.7344 79.8667 28.7202C80.0776 32.2841 77.9496 34.123 74.3646 33.5353L70.8754 32.9098C70.1278 32.796 69.6485 33.0235 69.7827 33.8955L70.2428 36.6823C70.3361 37.2601 70.4001 37.8422 70.4345 38.4263C70.5307 39.0852 70.46 39.7574 70.2285 40.3825C69.9971 41.0076 69.6122 41.5661 69.1086 42.0078C68.6049 42.4495 67.9981 42.7605 67.3428 42.913C66.6875 43.0655 66.0041 43.0546 65.3541 42.8813C64.2039 42.7297 63.0919 42.4074 61.9417 42.3126C61.2819 42.2672 60.6215 42.3912 60.0245 42.6728C59.3859 43.085 58.6143 43.2455 57.8619 43.1226C57.1095 42.9998 56.431 42.6025 55.9603 42.0093C55.4984 41.4049 55.2903 40.6475 55.3796 39.8951C55.4689 39.1427 55.8487 38.4535 56.4395 37.9714C57.2286 37.3183 58.151 36.8414 59.1436 36.5731C60.1361 36.3048 61.1756 36.2515 62.1909 36.4169C62.766 36.4169 63.3412 36.5685 64.108 36.6823C63.8204 33.8955 63.3603 30.995 65.6417 28.8529C67.923 26.7107 70.6837 26.9571 73.5786 27.3552C73.1568 24.5306 72.8309 21.668 75.0739 19.5069C77.317 17.3458 80.1351 17.687 82.9724 18.0093Z" fill="#21005D"/>
<path d="M47.3339 45.7441C47.564 45.9527 47.8132 46.1422 48.0432 46.3697L71.6813 69.7631C73.8477 71.9053 73.3492 74.1991 70.4927 75.2607L63.2076 77.9716C62.9831 78.0901 62.7247 78.1302 62.4742 78.0855C62.2237 78.0408 61.9958 77.9138 61.8273 77.7252C54.2664 70.6067 49.3158 61.2028 47.7557 50.9953C47.4873 49.2892 47.3339 47.5451 47.123 45.82L47.3339 45.7441Z" fill="#21005D"/>
<path d="M59.8908 9.27017C59.8899 16.9103 57.0127 24.2766 51.8197 29.9337C51.2446 30.5972 50.6311 31.2417 50.0176 31.8294C49.7511 32.1204 49.4284 32.3556 49.0685 32.5212C48.7085 32.6868 48.3187 32.7794 47.922 32.7936C47.5253 32.8077 47.1297 32.7431 46.7587 32.6035C46.3876 32.464 46.0486 32.2523 45.7616 31.9811C45.4711 31.7051 45.24 31.3739 45.0821 31.0074C44.9242 30.641 44.8428 30.2467 44.8428 29.8484C44.8428 29.45 44.9242 29.0558 45.0821 28.6893C45.24 28.3228 45.4711 27.9916 45.7616 27.7157C49.0007 24.5904 51.4334 20.7415 52.855 16.4929C54.0154 13.0147 54.1681 9.28474 53.2959 5.72514C53.1048 5.00409 53.1962 4.23829 53.5517 3.58098C53.9071 2.92367 54.5005 2.42334 55.213 2.18011C55.5916 2.05621 55.992 2.01101 56.3891 2.04732C56.7862 2.08363 57.1714 2.20069 57.5206 2.39114C57.8698 2.58159 58.1754 2.84133 58.4183 3.15407C58.6613 3.46681 58.8362 3.8258 58.9322 4.20854C59.4882 6.21802 59.7182 8.24647 59.8908 9.27017Z" fill="#21005D"/>
<path d="M95.7026 47.2792C95.185 47.1844 94.4182 46.9948 93.6513 46.8811C88.1194 46.1046 82.4975 47.4622 77.9501 50.6725C76.2444 51.8917 74.6121 53.2083 73.0615 54.6156C72.6563 55.0244 72.143 55.3123 71.5803 55.4464C71.0176 55.5804 70.4281 55.5554 69.8791 55.374C69.3661 55.2037 68.9131 54.8919 68.5734 54.4754C68.2337 54.0589 68.0216 53.555 67.9619 53.0232C67.8802 52.5713 67.9127 52.1063 68.0565 51.6698C68.2004 51.2332 68.451 50.8386 68.7863 50.5209C73.8503 45.1983 80.627 41.7808 87.9575 40.8526C91.0024 40.4401 94.1013 40.6793 97.0446 41.554C97.6913 41.784 98.2366 42.2298 98.5866 42.8146C98.9365 43.3994 99.0692 44.0866 98.9617 44.7578C98.8431 45.5084 98.4405 46.1865 97.8354 46.6546C97.2303 47.1227 96.468 47.346 95.7026 47.2792Z" fill="#21005D"/>
<path d="M91.7915 28.9863C92.5854 29.0103 93.3397 29.3342 93.8996 29.8913C94.4594 30.4484 94.7821 31.1964 94.8014 31.9816C94.7678 32.7517 94.4408 33.4808 93.886 34.0223C93.3313 34.5639 92.5899 34.8778 91.8107 34.901C91.0327 34.8784 90.2916 34.5678 89.7342 34.0307C89.1768 33.4935 88.8437 32.769 88.8008 32.0005C88.8149 31.2152 89.1329 30.4652 89.6891 29.9045C90.2454 29.3439 90.9977 29.0153 91.7915 28.9863Z" fill="#21005D"/>
<path d="M73.8285 11.2425C73.8261 11.6333 73.7448 12.0196 73.5896 12.3789C73.4344 12.7383 73.2082 13.0634 72.9243 13.3352C72.6405 13.6071 72.3047 13.8202 71.9365 13.9621C71.5684 14.1041 71.1753 14.172 70.7803 14.1619C70.0053 14.1376 69.2698 13.8184 68.7269 13.271C68.184 12.7236 67.8757 11.9902 67.8662 11.2236C67.8862 10.4373 68.2162 9.69 68.7857 9.14102C69.3552 8.59204 70.1191 8.28491 70.9144 8.28516C71.6927 8.30966 72.431 8.63144 72.9744 9.18289C73.5178 9.73435 73.8239 10.4726 73.8285 11.2425Z" fill="#21005D"/>
<path d="M90.5651 60.9106C90.5705 61.3003 90.4959 61.6871 90.3458 62.0474C90.1957 62.4078 89.9733 62.7343 89.6919 63.0072C89.4105 63.2801 89.0761 63.4938 88.7089 63.6352C88.3416 63.7766 87.9492 63.8429 87.5553 63.8301C86.7771 63.8201 86.034 63.5088 85.4855 62.9629C84.937 62.417 84.627 61.6801 84.6221 60.9106C84.6219 60.5208 84.7007 60.1349 84.8539 59.7756C85.007 59.4164 85.2314 59.0911 85.5137 58.819C85.796 58.5469 86.1306 58.3335 86.4977 58.1913C86.8648 58.0491 87.257 57.9811 87.6511 57.9912C88.037 57.9912 88.4191 58.067 88.7752 58.2141C89.1312 58.3613 89.4542 58.5769 89.7253 58.8485C89.9964 59.1201 90.2102 59.4423 90.3544 59.7963C90.4986 60.1503 90.5702 60.5291 90.5651 60.9106Z" fill="#21005D"/>
<path d="M38.5723 15.4116C38.5748 15.0316 38.6533 14.6558 38.8033 14.3059C38.9532 13.956 39.1717 13.6389 39.4461 13.3729C39.7205 13.1068 40.0454 12.897 40.4022 12.7557C40.7589 12.6143 41.1404 12.5441 41.5247 12.5491C41.9189 12.5465 42.3096 12.622 42.6738 12.7711C43.0381 12.9202 43.3684 13.14 43.6454 13.4174C43.9223 13.6948 44.1403 14.0242 44.2864 14.3863C44.4326 14.7483 44.5039 15.1356 44.4962 15.5254C44.4717 16.2935 44.1496 17.0229 43.5965 17.5628C43.0434 18.1026 42.3017 18.4116 41.5247 18.4259C41.1295 18.4235 40.7388 18.3432 40.3754 18.1897C40.012 18.0361 39.6832 17.8125 39.4083 17.5318C39.1334 17.2512 38.9179 16.9191 38.7744 16.555C38.6308 16.191 38.5621 15.8023 38.5723 15.4116Z" fill="#21005D"/>
</g>
<defs>
<clipPath id="clip0_4338_6606">
<rect width="99" height="100" fill="white"/>
</clipPath>
</defs>
</svg>
