<svg width="100" height="87" viewBox="0 0 100 87" fill="none" xmlns="http://www.w3.org/2000/svg">
<g clip-path="url(#clip0_4338_6638)">
<path d="M49.9897 40.4336C55.1396 40.5547 59.7482 42.1469 63.5365 45.6717C69.4808 51.204 75.4021 56.7652 81.2112 62.4417C85.293 66.428 86.289 71.3835 84.5906 76.7427C82.8635 82.1481 79.2278 85.6671 73.5627 86.7978C70.5545 87.3978 67.6558 86.5469 64.7541 85.9037C61.2279 85.122 57.7246 84.173 54.1637 83.5961C49.5292 82.849 44.9695 83.5298 40.4443 84.7499C37.1339 85.6354 33.7717 86.4805 30.3692 86.8872C22.8589 87.8189 15.9963 82.301 14.8707 74.7727C14.105 69.647 15.5933 65.3666 19.3671 61.8245C24.8969 56.6325 30.3835 51.4031 35.8846 46.1823C39.8542 42.4181 44.5751 40.5547 49.9897 40.4336Z" fill="#21005D"/>
<path d="M46.7802 18.7575C46.737 21.2958 45.597 25.5186 42.681 29.1414C38.4351 34.4228 31.7567 34.5526 27.4244 29.3635C23.8348 25.0772 22.7236 20.0064 23.1986 14.5433C23.521 10.8455 24.5141 7.33225 26.817 4.33534C31.2961 -1.52004 38.8755 -1.43351 43.251 4.51417C45.5164 7.61205 46.8492 12.181 46.7802 18.7575Z" fill="#21005D"/>
<path d="M53.1963 16.6149C53.2711 12.7411 53.9649 8.97985 56.0461 5.62526C58.2684 2.03992 61.337 -0.227233 65.7758 0.0525564C68.8329 0.245813 71.1818 1.81494 73.0529 4.14844C75.0823 6.68096 76.0927 9.65192 76.6051 12.8017C77.4687 18.2187 76.703 23.3356 73.6632 27.9709C71.936 30.6101 69.6331 32.5658 66.3832 33.0504C62.641 33.6099 59.7307 32.0177 57.4163 29.2343C54.3967 25.6057 53.2481 21.2963 53.1963 16.6149Z" fill="#21005D"/>
<path d="M20.5998 39.8025C20.5135 42.2946 20.122 44.6887 19.031 46.9327C16.4604 52.2257 10.7981 53.4429 6.31327 49.6326C3.35406 47.1174 1.76219 43.7628 0.818002 40.0765C-0.163604 36.2835 -0.408277 32.4789 0.898612 28.7291C1.33174 27.4753 1.97522 26.3047 2.80137 25.2678C5.58786 21.8585 10.1879 21.4979 13.7545 24.3448C17.2577 27.1398 19.1202 30.9242 20.0039 35.2306C20.3235 36.7219 20.4127 38.2708 20.5998 39.8025Z" fill="#21005D"/>
<path d="M100.003 35.7117C99.8335 39.6316 98.564 44.4227 95.0406 48.3513C92.6082 51.0684 89.5713 52.5106 85.8953 51.377C82.7432 50.4079 81.0708 47.9157 80.1726 44.8784C78.0971 37.8491 80.7311 28.7977 86.0997 24.4423C90.3024 21.0358 95.4954 22.0078 98.1697 26.7008C99.396 28.8497 100 31.4168 100.003 35.7117Z" fill="#21005D"/>
</g>
<defs>
<clipPath id="clip0_4338_6638">
<rect width="100" height="87" fill="white"/>
</clipPath>
</defs>
</svg>
