<svg width="100" height="97" viewBox="0 0 100 97" fill="none" xmlns="http://www.w3.org/2000/svg">
<g clip-path="url(#clip0_4332_6896)">
<path d="M58.3992 0C58.3816 1.2927 58.3522 2.58541 58.3522 3.87811C58.3522 10.2537 58.3522 16.6298 58.3522 23.0067V24.2196H74.9374V32.3194H70.8787V40.4818C68.3973 41.1348 65.9765 41.5524 63.728 42.4029C51.317 47.0953 44.0098 55.8481 41.9765 68.6517C41.7504 70.2461 41.6464 71.8545 41.6654 73.4637C41.634 80.8821 41.6517 88.3004 41.6517 95.7187V96.9298H33.3601V72.75C31.8513 72.75 30.4579 72.7937 29.0685 72.75C18.5388 72.3628 10.9667 67.571 6.35224 58.3746C4.7495 55.1761 4.15459 51.7308 4.15068 48.1792C4.15068 43.3172 4.15068 38.4558 4.15068 33.595V32.4048H0V24.25H16.6497V22.963C16.6497 16.5672 16.6497 10.1714 16.6497 3.7756C16.6497 2.51707 16.6203 1.25853 16.6027 0H25.0078V24.1855H50.0078V0H58.3992Z" fill="#21005D"/>
<path d="M100 72.732C100 75.92 99.3529 79.0769 98.0949 82.0222C96.8369 84.9675 94.993 87.6435 92.6684 89.8973C90.3438 92.1511 87.5842 93.9385 84.5472 95.1574C81.5102 96.3762 78.2554 97.0027 74.9687 97.0009C61.1977 96.9839 50.0039 86.1203 50 72.768C49.9951 66.3365 52.6243 60.1666 57.3092 55.6154C61.9941 51.0643 68.351 48.5048 74.9814 48.5C81.6118 48.4952 87.9726 51.0455 92.6645 55.5899C97.3564 60.1343 99.9951 66.3005 100 72.732ZM76.4521 92.7318C79.8572 87.935 83.3014 83.309 86.4971 78.5159C89.3092 74.2828 86.0783 68.8178 80.8787 68.7438C78.8943 68.7153 76.91 68.7438 74.9256 68.7438H72.3503L80.0411 57.2936L73.1037 52.8043C71.7515 54.7158 70.3777 56.5495 69.1174 58.4572C67.0333 61.614 64.9687 64.7878 63.0215 68.0262C62.5639 68.856 62.3692 69.7983 62.4619 70.735C62.8102 74.2638 65.5832 76.6936 69.2564 76.7809C71.6615 76.8398 74.0705 76.7961 76.4775 76.798H77.7084L69.5362 88.2159L76.4521 92.7318Z" fill="#21005D"/>
</g>
<defs>
<clipPath id="clip0_4332_6896">
<rect width="100" height="97" fill="white"/>
</clipPath>
</defs>
</svg>
